<?xml version="1.0" encoding="UTF-8" standalone="no"?>
<svg
   viewBox="0 0 40 40"
   version="1.1"
   id="svg12"
   sodipodi:docname="green.svg"
   inkscape:version="1.2.2 (732a01da63, 2022-12-09)"
   xmlns:inkscape="http://www.inkscape.org/namespaces/inkscape"
   xmlns:sodipodi="http://sodipodi.sourceforge.net/DTD/sodipodi-0.dtd"
   xmlns="http://www.w3.org/2000/svg"
   xmlns:svg="http://www.w3.org/2000/svg">
  <defs
     id="defs16" />
  <sodipodi:namedview
     id="namedview14"
     pagecolor="#ffffff"
     bordercolor="#000000"
     borderopacity="0.25"
     inkscape:showpageshadow="2"
     inkscape:pageopacity="0.0"
     inkscape:pagecheckerboard="0"
     inkscape:deskcolor="#d1d1d1"
     showgrid="false"
     inkscape:zoom="25.675"
     inkscape:cx="19.980526"
     inkscape:cy="20"
     inkscape:window-width="2560"
     inkscape:window-height="1361"
     inkscape:window-x="-9"
     inkscape:window-y="-9"
     inkscape:window-maximized="1"
     inkscape:current-layer="svg12" />
  <!-- Key head -->
  <path
     id="circle2"
     d="m 4.8632811,19.336914 c 0,-4.418278 3.5817219,-8 7.9999999,-8 3.642215,0.0071 6.81992,2.473432 7.730469,6 h 14.542969 v 4 6.313514 h -4 v -6.313514 h -1.675526 v 5 h -4.078125 v -5 H 20.59375 c -0.910549,3.526568 -4.088254,5.992942 -7.730469,6 -4.418278,0 -7.9999999,-3.581722 -7.9999999,-8 z m 5.0000001,0 c 0,1.656854 1.3431458,3 2.9999998,3 1.656854,0 3,-1.343146 3,-3 0,-1.656854 -1.343146,-3 -3,-3 -1.656854,0 -2.9999998,1.343146 -2.9999998,3 z"
     style="fill:#56ffbd;stroke:#00cc7e;stroke-opacity:1;stroke-width:0.5;stroke-dasharray:none;fill-opacity:1"
     sodipodi:nodetypes="scccccccccccccssssss" />
  <!-- Key stem -->
  <!-- Key teeth -->
  <!-- Highlight reflection -->
</svg>
